<?xml version="1.0" standalone="no"?>
<!DOCTYPE svg PUBLIC "-//W3C//DTD SVG 20010904//EN"
 "http://www.w3.org/TR/2001/REC-SVG-20010904/DTD/svg10.dtd">
<svg version="1.0" xmlns="http://www.w3.org/2000/svg"
 width="225.000000pt" height="225.000000pt" viewBox="0 0 225.000000 225.000000"
 preserveAspectRatio="xMidYMid meet">

<g transform="translate(0.000000,225.000000) scale(0.100000,-0.100000)"
fill="#000000" stroke="none">
<path d="M0 1343 c0 -555 4 -903 9 -897 5 5 15 38 22 74 7 36 21 74 31 86 10
11 18 24 18 28 0 14 84 96 99 97 28 1 65 58 63 95 -2 25 2 34 13 34 8 0 15 7
15 15 0 8 -7 15 -15 15 -8 0 -15 -6 -15 -12 0 -9 -2 -10 -8 -2 -4 6 -22 15
-39 19 -19 4 -33 13 -33 21 0 28 -78 134 -100 134 -5 0 -9 19 -8 43 1 23 -2
84 -5 134 -4 52 -2 104 3 118 6 16 6 25 0 25 -13 0 -13 73 0 86 6 6 11 29 13
51 3 43 17 72 17 37 1 -13 5 -9 15 14 17 40 23 40 36 2 6 -16 15 -30 20 -30 5
0 9 -7 9 -15 0 -8 4 -15 9 -15 5 0 12 -11 15 -25 4 -14 11 -25 16 -25 15 0 25
-71 10 -80 -9 -6 -9 -13 -1 -28 6 -11 13 -67 16 -124 3 -57 8 -124 10 -149 5
-37 2 -49 -15 -64 -11 -10 -20 -21 -20 -24 0 -13 47 -60 54 -54 3 3 6 1 6 -5
0 -6 14 -13 30 -17 20 -4 30 -13 30 -25 0 -28 75 -31 115 -5 39 25 55 41 49
48 -3 3 7 23 21 46 15 22 24 45 20 51 -4 6 -2 16 4 23 5 7 11 33 13 57 2 51
19 105 36 122 7 7 12 22 12 34 0 12 3 24 7 26 5 2 27 31 51 66 l44 63 -4 222
c-5 219 1 273 28 263 7 -3 10 2 7 15 -6 21 22 28 30 7 3 -10 7 -10 20 1 10 7
17 10 17 5 0 -5 4 -4 8 1 11 15 127 75 146 75 9 0 16 -4 16 -10 0 -5 -8 -10
-18 -10 -20 0 -111 -55 -113 -67 0 -5 -3 -21 -5 -38 -4 -28 -3 -29 11 -11 14
19 15 17 15 -27 0 -26 5 -48 10 -48 6 -1 16 -2 22 -3 7 0 14 -9 16 -20 2 -10
0 -16 -5 -13 -5 4 -10 -8 -10 -26 0 -18 2 -26 5 -19 2 6 9 9 15 5 25 -15 41
-11 76 23 57 54 138 85 148 57 3 -7 0 -13 -7 -13 -6 0 -8 5 -4 12 5 8 2 9 -10
5 -10 -4 -23 -7 -29 -7 -7 -1 2 -7 18 -14 17 -7 37 -11 45 -9 8 2 4 -4 -10
-14 -14 -9 -56 -48 -95 -86 -68 -67 -68 -68 -21 -36 27 19 97 80 155 137 58
56 110 101 115 99 23 -8 -250 -260 -343 -318 -46 -29 -110 -97 -117 -123 -7
-31 7 -52 42 -60 19 -5 30 -2 39 11 13 17 16 17 59 -6 37 -19 49 -21 61 -11
13 11 12 15 -10 32 -14 11 -25 28 -25 38 0 10 -6 21 -12 24 -7 3 -3 3 9 0 15
-3 23 1 28 15 3 11 19 31 36 45 16 14 29 29 29 35 0 5 7 14 16 19 23 13 118
-21 122 -43 3 -11 0 -15 -7 -11 -6 4 -3 -9 6 -28 10 -20 22 -36 26 -36 5 0 5
6 2 13 -4 6 3 1 14 -12 14 -15 21 -37 21 -65 0 -29 3 -37 10 -26 8 12 10 12
16 -3 3 -9 12 -17 20 -17 21 0 37 -37 19 -44 -18 -6 -20 -49 -4 -78 6 -11 31
-29 56 -40 31 -14 43 -24 39 -35 -3 -8 -6 -17 -6 -19 0 -2 -6 -4 -14 -4 -8 0
-16 -5 -18 -10 -2 -6 -13 -12 -26 -13 -12 0 -22 -7 -22 -14 0 -7 -7 -13 -15
-13 -8 0 -15 -5 -15 -11 0 -5 -5 -7 -10 -4 -6 4 -18 1 -27 -7 -12 -9 -15 -9
-9 0 14 23 -6 12 -28 -15 -14 -18 -21 -42 -21 -70 0 -42 9 -46 18 -8 3 15 5
13 6 -8 0 -16 5 -26 10 -22 5 3 12 -7 14 -22 2 -16 3 -7 1 18 -3 32 0 50 10
58 11 9 15 9 19 -1 3 -8 6 -5 7 7 0 13 6 5 15 -20 17 -47 19 -69 5 -60 -6 4
-8 11 -5 16 4 5 2 16 -3 25 -8 15 -10 15 -15 0 -4 -10 -3 -15 3 -11 12 8 12
10 -4 -50 -7 -27 -11 -56 -8 -64 3 -10 0 -12 -11 -8 -32 12 -32 -84 0 -110 21
-17 11 -27 -62 -63 -36 -17 -67 -35 -70 -40 -3 -4 -13 -6 -24 -3 -14 3 -21 -3
-30 -29 -11 -29 -10 -35 10 -50 22 -19 33 -21 87 -18 28 1 34 -3 46 -32 8 -19
18 -61 21 -94 12 -101 -24 -146 -125 -159 -30 -4 -63 -11 -73 -17 -20 -10
-102 14 -130 39 -21 20 -20 21 -36 -47 -10 -38 -23 -64 -46 -85 -17 -16 -34
-37 -38 -45 -5 -12 -9 -11 -25 7 -10 12 -32 23 -48 26 -23 3 -20 4 12 6 29 1
44 6 48 17 4 9 4 19 1 22 -3 3 -5 -1 -5 -8 0 -10 -14 -11 -57 -6 -56 6 -332
-21 -343 -33 -3 -3 -20 -7 -39 -8 -26 -1 -31 1 -20 9 10 7 7 8 -12 4 -15 -3
-41 -1 -59 6 -30 10 -31 12 -16 24 16 11 14 13 -20 18 -22 4 -58 11 -82 16
-23 6 -51 10 -62 10 -10 0 -35 9 -54 21 l-36 21 0 -106 0 -106 1125 0 1125 0
0 1125 0 1125 -1125 0 -1125 0 0 -907z m874 474 c4 -19 3 -26 -4 -22 -5 3 -10
18 -10 32 0 32 5 28 14 -10z m46 -82 c0 -8 -4 -15 -10 -15 -5 0 -10 7 -10 15
0 8 5 15 10 15 6 0 10 -7 10 -15z m510 -105 c11 0 18 -46 9 -62 -4 -7 -11 -9
-16 -5 -4 5 -1 12 7 17 13 8 13 10 -1 10 -9 0 -20 -7 -23 -16 -4 -9 -9 -14
-13 -10 -4 3 -19 -18 -35 -46 -22 -40 -28 -61 -23 -85 4 -20 2 -33 -5 -33 -5
0 -10 5 -10 11 0 5 -4 8 -9 5 -5 -3 -11 3 -14 14 -3 12 -1 18 5 14 7 -4 7 0 1
12 -15 29 -9 101 10 122 9 10 17 25 17 32 0 7 3 11 6 8 3 -4 17 0 32 8 15 8
33 12 40 9 8 -3 17 -5 22 -5z m249 -112 c0 -27 -2 -29 -8 -13 -5 11 -6 26 -4
33 8 21 13 13 12 -20z m39 -317 c-3 -65 -4 -66 -32 -69 -25 -3 -28 -1 -21 15
4 10 10 28 12 41 3 12 12 22 19 22 10 0 14 13 14 40 0 22 -4 40 -10 40 -12 0
-13 30 -3 57 11 28 24 -66 21 -146z m102 -431 c186 -16 307 -39 362 -66 26
-13 26 -15 23 -97 -1 -46 -6 -94 -10 -106 -5 -15 -2 -21 9 -21 30 0 19 -44
-14 -59 -24 -10 -28 -16 -20 -26 17 -20 -58 -65 -107 -65 -21 0 -54 -4 -73 -9
-19 -5 -105 -15 -190 -21 -194 -14 -241 -19 -309 -30 -30 -6 -72 -10 -93 -10
-33 0 -41 5 -65 42 -23 34 -29 55 -32 119 -3 82 17 149 45 149 54 0 101 29
193 122 90 90 98 96 131 93 19 -3 87 -9 150 -15z m-807 -590 c13 0 27 -3 31
-7 8 -9 77 -33 94 -33 22 0 82 -31 82 -42 0 -11 -44 -8 -193 13 -75 10 -96 16
-92 27 3 7 0 22 -5 32 -8 15 -6 19 8 23 9 2 25 0 34 -5 9 -4 27 -8 41 -8z
m325 -24 c17 -34 8 -67 -12 -45 -19 20 -30 82 -13 77 6 -3 18 -17 25 -32z
m-730 -63 c-10 -2 -26 -2 -35 0 -10 3 -2 5 17 5 19 0 27 -2 18 -5z"/>
<path d="M1110 1375 c14 -17 0 -21 -17 -4 -24 24 -30 2 -8 -26 18 -22 33 -30
60 -30 19 -1 35 1 35 5 0 9 -64 70 -74 70 -5 0 -3 -7 4 -15z"/>
<path d="M800 1246 c0 -7 -7 -19 -15 -26 -9 -7 -13 -15 -10 -18 3 -3 0 -11 -6
-19 -9 -10 -8 -13 5 -13 9 0 15 5 14 12 -2 7 7 17 20 23 12 5 20 16 17 23 -3
8 -5 18 -5 23 0 5 -4 9 -10 9 -5 0 -10 -6 -10 -14z"/>
<path d="M1074 1054 c-18 -14 -18 -15 4 -4 12 6 22 13 22 15 0 8 -5 6 -26 -11z"/>
<path d="M1215 1060 c-3 -5 -1 -10 4 -10 6 0 11 5 11 10 0 6 -2 10 -4 10 -3 0
-8 -4 -11 -10z"/>
<path d="M1046 974 c-3 -9 -2 -23 4 -32 8 -14 10 -14 10 -2 0 12 4 11 15 -4
12 -15 17 -17 29 -7 8 7 14 21 13 32 -2 23 -6 24 -22 2 -7 -9 -17 -13 -24 -9
-9 6 -9 11 0 22 9 11 8 14 -4 14 -8 0 -18 -7 -21 -16z"/>
<path d="M1128 980 c-5 -17 13 -70 24 -70 10 0 9 7 -6 50 -8 22 -15 29 -18 20z"/>
<path d="M1190 941 c0 -5 5 -13 10 -16 6 -3 10 -2 10 4 0 5 -4 13 -10 16 -5 3
-10 2 -10 -4z"/>
<path d="M1100 915 c-7 -8 -8 -15 -2 -15 5 0 15 7 22 15 7 8 8 15 2 15 -5 0
-15 -7 -22 -15z"/>
<path d="M1060 586 c0 -9 5 -16 10 -16 6 0 10 4 10 9 0 6 -4 13 -10 16 -5 3
-10 -1 -10 -9z"/>
<path d="M840 421 c0 -6 4 -13 10 -16 6 -3 7 1 4 9 -7 18 -14 21 -14 7z"/>
<path d="M0 260 c0 -19 3 -21 12 -12 9 9 9 15 0 24 -9 9 -12 7 -12 -12z"/>
</g>
</svg>
